<svg width="38" height="47" viewBox="0 0 38 47" fill="none" xmlns="http://www.w3.org/2000/svg">
<path d="M18.8 23.5C20.0925 23.5 21.199 23.0398 22.1194 22.1194C23.0398 21.199 23.5 20.0925 23.5 18.8C23.5 17.5075 23.0398 16.401 22.1194 15.4806C21.199 14.5602 20.0925 14.1 18.8 14.1C17.5075 14.1 16.401 14.5602 15.4806 15.4806C14.5602 16.401 14.1 17.5075 14.1 18.8C14.1 20.0925 14.5602 21.199 15.4806 22.1194C16.401 23.0398 17.5075 23.5 18.8 23.5ZM18.8 47C12.4942 41.6342 7.78438 36.6502 4.67063 32.0481C1.55687 27.446 0 23.1867 0 19.27C0 13.395 1.88979 8.71458 5.66937 5.22875C9.44896 1.74292 13.8258 0 18.8 0C23.7742 0 28.151 1.74292 31.9306 5.22875C35.7102 8.71458 37.6 13.395 37.6 19.27C37.6 23.1867 36.0431 27.446 32.9294 32.0481C29.8156 36.6502 25.1058 41.6342 18.8 47Z" fill="#7BB896"/>
</svg>
