<svg width="36" height="36" viewBox="0 0 36 36" fill="none" xmlns="http://www.w3.org/2000/svg">
<mask id="mask0_1_44" style="mask-type:alpha" maskUnits="userSpaceOnUse" x="0" y="0" width="36" height="36">
<rect width="36" height="36" fill="#D9D9D9"/>
</mask>
<g mask="url(#mask0_1_44)">
<path d="M6 31.5C5.175 31.5 4.46875 31.2063 3.88125 30.6188C3.29375 30.0312 3 29.325 3 28.5V7.5C3 6.675 3.29375 5.96875 3.88125 5.38125C4.46875 4.79375 5.175 4.5 6 4.5H30C30.825 4.5 31.5312 4.79375 32.1188 5.38125C32.7063 5.96875 33 6.675 33 7.5V28.5C33 29.325 32.7063 30.0312 32.1188 30.6188C31.5312 31.2063 30.825 31.5 30 31.5H6ZM6 28.5H30V7.5H6V28.5ZM7.5 25.5H15V22.5H7.5V25.5ZM21.825 22.5L29.25 15.075L27.1125 12.9375L21.825 18.2625L19.6875 16.125L17.5875 18.2625L21.825 22.5ZM7.5 19.5H15V16.5H7.5V19.5ZM7.5 13.5H15V10.5H7.5V13.5Z" fill="white"/>
</g>
</svg>
