<svg width="36" height="36" viewBox="0 0 36 36" fill="none" xmlns="http://www.w3.org/2000/svg">
<mask id="mask0_1_35" style="mask-type:alpha" maskUnits="userSpaceOnUse" x="0" y="0" width="36" height="36">
<rect width="36" height="36" fill="#D9D9D9"/>
</mask>
<g mask="url(#mask0_1_35)">
<path d="M10.5 21C10.925 21 11.2812 20.8563 11.5688 20.5688C11.8562 20.2813 12 19.925 12 19.5C12 19.075 11.8562 18.7188 11.5688 18.4313C11.2812 18.1438 10.925 18 10.5 18C10.075 18 9.71875 18.1438 9.43125 18.4313C9.14375 18.7188 9 19.075 9 19.5C9 19.925 9.14375 20.2813 9.43125 20.5688C9.71875 20.8563 10.075 21 10.5 21ZM10.5 15C10.925 15 11.2812 14.8562 11.5688 14.5688C11.8562 14.2812 12 13.925 12 13.5C12 13.075 11.8562 12.7188 11.5688 12.4312C11.2812 12.1437 10.925 12 10.5 12C10.075 12 9.71875 12.1437 9.43125 12.4312C9.14375 12.7188 9 13.075 9 13.5C9 13.925 9.14375 14.2812 9.43125 14.5688C9.71875 14.8562 10.075 15 10.5 15ZM13.5 21H27V18H13.5V21ZM13.5 15H27V12H13.5V15ZM12 31.5V28.5H6C5.175 28.5 4.46875 28.2063 3.88125 27.6188C3.29375 27.0312 3 26.325 3 25.5V7.5C3 6.675 3.29375 5.96875 3.88125 5.38125C4.46875 4.79375 5.175 4.5 6 4.5H30C30.825 4.5 31.5312 4.79375 32.1188 5.38125C32.7063 5.96875 33 6.675 33 7.5V25.5C33 26.325 32.7063 27.0312 32.1188 27.6188C31.5312 28.2063 30.825 28.5 30 28.5H24V31.5H12ZM6 25.5H30V7.5H6V25.5Z" fill="white"/>
</g>
</svg>
